<svg width="1899" height="98" viewBox="0 0 1899 98" fill="none" xmlns="http://www.w3.org/2000/svg">
<path d="M475.64 78V22H501.08C507.16 22 512.52 23.1733 517.16 25.52C521.8 27.8133 525.427 31.04 528.04 35.2C530.653 39.36 531.96 44.2933 531.96 50C531.96 55.6533 530.653 60.5867 528.04 64.8C525.427 68.96 521.8 72.2133 517.16 74.56C512.52 76.8533 507.16 78 501.08 78H475.64ZM488.6 67.36H500.44C504.173 67.36 507.4 66.6667 510.12 65.28C512.893 63.84 515.027 61.8133 516.52 59.2C518.067 56.5867 518.84 53.52 518.84 50C518.84 46.4267 518.067 43.36 516.52 40.8C515.027 38.1867 512.893 36.1867 510.12 34.8C507.4 33.36 504.173 32.64 500.44 32.64H488.6V67.36ZM541.734 78V22H554.694V78H541.734ZM579.984 47.2H606.864V57.6H579.984V47.2ZM580.944 78H567.984V22H610.304V32.4H580.944V78ZM631.078 47.2H657.958V57.6H631.078V47.2ZM632.038 78H619.078V22H661.398V32.4H632.038V78ZM682.091 44.56H709.051V54.64H682.091V44.56ZM683.051 67.6H713.531V78H670.171V22H712.491V32.4H683.051V67.6ZM723.843 78V22H748.083C753.096 22 757.416 22.8267 761.043 24.48C764.67 26.08 767.47 28.4 769.443 31.44C771.416 34.48 772.403 38.1067 772.403 42.32C772.403 46.48 771.416 50.08 769.443 53.12C767.47 56.1067 764.67 58.4 761.043 60C757.416 61.6 753.096 62.4 748.083 62.4H731.043L736.803 56.72V78H723.843ZM759.443 78L745.443 57.68H759.283L773.443 78H759.443ZM736.803 58.16L731.043 52.08H747.363C751.363 52.08 754.35 51.2267 756.323 49.52C758.296 47.76 759.283 45.36 759.283 42.32C759.283 39.2267 758.296 36.8267 756.323 35.12C754.35 33.4133 751.363 32.56 747.363 32.56H731.043L736.803 26.4V58.16ZM794.591 44.56H821.551V54.64H794.591V44.56ZM795.551 67.6H826.031V78H782.671V22H824.991V32.4H795.551V67.6ZM836.343 78V22H847.063L880.103 62.32H874.903V22H887.703V78H877.063L843.943 37.68H849.143V78H836.343ZM912.553 78V32.56H894.633V22H943.433V32.56H925.513V78H912.553Z" fill="black" fill-opacity="0.12"/>
<path d="M955.64 78V22H981.08C987.16 22 992.52 23.1733 997.16 25.52C1001.8 27.8133 1005.43 31.04 1008.04 35.2C1010.65 39.36 1011.96 44.2933 1011.96 50C1011.96 55.6533 1010.65 60.5867 1008.04 64.8C1005.43 68.96 1001.8 72.2133 997.16 74.56C992.52 76.8533 987.16 78 981.08 78H955.64ZM968.6 67.36H980.44C984.173 67.36 987.4 66.6667 990.12 65.28C992.893 63.84 995.027 61.8133 996.52 59.2C998.067 56.5867 998.84 53.52 998.84 50C998.84 46.4267 998.067 43.36 996.52 40.8C995.027 38.1867 992.893 36.1867 990.12 34.8C987.4 33.36 984.173 32.64 980.44 32.64H968.6V67.36ZM1021.73 78V22H1034.69V78H1021.73ZM1059.98 47.2H1086.86V57.6H1059.98V47.2ZM1060.94 78H1047.98V22H1090.3V32.4H1060.94V78ZM1111.08 47.2H1137.96V57.6H1111.08V47.2ZM1112.04 78H1099.08V22H1141.4V32.4H1112.04V78ZM1162.09 44.56H1189.05V54.64H1162.09V44.56ZM1163.05 67.6H1193.53V78H1150.17V22H1192.49V32.4H1163.05V67.6ZM1203.84 78V22H1228.08C1233.1 22 1237.42 22.8267 1241.04 24.48C1244.67 26.08 1247.47 28.4 1249.44 31.44C1251.42 34.48 1252.4 38.1067 1252.4 42.32C1252.4 46.48 1251.42 50.08 1249.44 53.12C1247.47 56.1067 1244.67 58.4 1241.04 60C1237.42 61.6 1233.1 62.4 1228.08 62.4H1211.04L1216.8 56.72V78H1203.84ZM1239.44 78L1225.44 57.68H1239.28L1253.44 78H1239.44ZM1216.8 58.16L1211.04 52.08H1227.36C1231.36 52.08 1234.35 51.2267 1236.32 49.52C1238.3 47.76 1239.28 45.36 1239.28 42.32C1239.28 39.2267 1238.3 36.8267 1236.32 35.12C1234.35 33.4133 1231.36 32.56 1227.36 32.56H1211.04L1216.8 26.4V58.16ZM1274.59 44.56H1301.55V54.64H1274.59V44.56ZM1275.55 67.6H1306.03V78H1262.67V22H1304.99V32.4H1275.55V67.6ZM1316.34 78V22H1327.06L1360.1 62.32H1354.9V22H1367.7V78H1357.06L1323.94 37.68H1329.14V78H1316.34ZM1392.55 78V32.56H1374.63V22H1423.43V32.56H1405.51V78H1392.55Z" fill="black" fill-opacity="0.12"/>
<path d="M1430.64 78V22H1456.08C1462.16 22 1467.52 23.1733 1472.16 25.52C1476.8 27.8133 1480.43 31.04 1483.04 35.2C1485.65 39.36 1486.96 44.2933 1486.96 50C1486.96 55.6533 1485.65 60.5867 1483.04 64.8C1480.43 68.96 1476.8 72.2133 1472.16 74.56C1467.52 76.8533 1462.16 78 1456.08 78H1430.64ZM1443.6 67.36H1455.44C1459.17 67.36 1462.4 66.6667 1465.12 65.28C1467.89 63.84 1470.03 61.8133 1471.52 59.2C1473.07 56.5867 1473.84 53.52 1473.84 50C1473.84 46.4267 1473.07 43.36 1471.52 40.8C1470.03 38.1867 1467.89 36.1867 1465.12 34.8C1462.4 33.36 1459.17 32.64 1455.44 32.64H1443.6V67.36ZM1496.73 78V22H1509.69V78H1496.73ZM1534.98 47.2H1561.86V57.6H1534.98V47.2ZM1535.94 78H1522.98V22H1565.3V32.4H1535.94V78ZM1586.08 47.2H1612.96V57.6H1586.08V47.2ZM1587.04 78H1574.08V22H1616.4V32.4H1587.04V78ZM1637.09 44.56H1664.05V54.64H1637.09V44.56ZM1638.05 67.6H1668.53V78H1625.17V22H1667.49V32.4H1638.05V67.6ZM1678.84 78V22H1703.08C1708.1 22 1712.42 22.8267 1716.04 24.48C1719.67 26.08 1722.47 28.4 1724.44 31.44C1726.42 34.48 1727.4 38.1067 1727.4 42.32C1727.4 46.48 1726.42 50.08 1724.44 53.12C1722.47 56.1067 1719.67 58.4 1716.04 60C1712.42 61.6 1708.1 62.4 1703.08 62.4H1686.04L1691.8 56.72V78H1678.84ZM1714.44 78L1700.44 57.68H1714.28L1728.44 78H1714.44ZM1691.8 58.16L1686.04 52.08H1702.36C1706.36 52.08 1709.35 51.2267 1711.32 49.52C1713.3 47.76 1714.28 45.36 1714.28 42.32C1714.28 39.2267 1713.3 36.8267 1711.32 35.12C1709.35 33.4133 1706.36 32.56 1702.36 32.56H1686.04L1691.8 26.4V58.16ZM1749.59 44.56H1776.55V54.64H1749.59V44.56ZM1750.55 67.6H1781.03V78H1737.67V22H1779.99V32.4H1750.55V67.6ZM1791.34 78V22H1802.06L1835.1 62.32H1829.9V22H1842.7V78H1832.06L1798.94 37.68H1804.14V78H1791.34ZM1867.55 78V32.56H1849.63V22H1898.43V32.56H1880.51V78H1867.55Z" fill="black" fill-opacity="0.12"/>
<path d="M10.64 78V22H36.08C42.16 22 47.52 23.1733 52.16 25.52C56.8 27.8133 60.4267 31.04 63.04 35.2C65.6533 39.36 66.96 44.2933 66.96 50C66.96 55.6533 65.6533 60.5867 63.04 64.8C60.4267 68.96 56.8 72.2133 52.16 74.56C47.52 76.8533 42.16 78 36.08 78H10.64ZM23.6 67.36H35.44C39.1733 67.36 42.4 66.6667 45.12 65.28C47.8933 63.84 50.0267 61.8133 51.52 59.2C53.0667 56.5867 53.84 53.52 53.84 50C53.84 46.4267 53.0667 43.36 51.52 40.8C50.0267 38.1867 47.8933 36.1867 45.12 34.8C42.4 33.36 39.1733 32.64 35.44 32.64H23.6V67.36ZM76.7338 78V22H89.6938V78H76.7338ZM114.984 47.2H141.864V57.6H114.984V47.2ZM115.944 78H102.984V22H145.304V32.4H115.944V78ZM166.078 47.2H192.958V57.6H166.078V47.2ZM167.038 78H154.078V22H196.398V32.4H167.038V78ZM217.091 44.56H244.051V54.64H217.091V44.56ZM218.051 67.6H248.531V78H205.171V22H247.491V32.4H218.051V67.6ZM258.843 78V22H283.083C288.096 22 292.416 22.8267 296.043 24.48C299.67 26.08 302.47 28.4 304.443 31.44C306.416 34.48 307.403 38.1067 307.403 42.32C307.403 46.48 306.416 50.08 304.443 53.12C302.47 56.1067 299.67 58.4 296.043 60C292.416 61.6 288.096 62.4 283.083 62.4H266.043L271.803 56.72V78H258.843ZM294.443 78L280.443 57.68H294.283L308.443 78H294.443ZM271.803 58.16L266.043 52.08H282.363C286.363 52.08 289.35 51.2267 291.323 49.52C293.296 47.76 294.283 45.36 294.283 42.32C294.283 39.2267 293.296 36.8267 291.323 35.12C289.35 33.4133 286.363 32.56 282.363 32.56H266.043L271.803 26.4V58.16ZM329.591 44.56H356.551V54.64H329.591V44.56ZM330.551 67.6H361.031V78H317.671V22H359.991V32.4H330.551V67.6ZM371.343 78V22H382.063L415.103 62.32H409.903V22H422.703V78H412.063L378.943 37.68H384.143V78H371.343ZM447.553 78V32.56H429.633V22H478.433V32.56H460.513V78H447.553Z" fill="black" fill-opacity="0.12"/>
<path d="M465.64 78V22H491.08C497.16 22 502.52 23.1733 507.16 25.52C511.8 27.8133 515.427 31.04 518.04 35.2C520.653 39.36 521.96 44.2933 521.96 50C521.96 55.6533 520.653 60.5867 518.04 64.8C515.427 68.96 511.8 72.2133 507.16 74.56C502.52 76.8533 497.16 78 491.08 78H465.64ZM478.6 67.36H490.44C494.173 67.36 497.4 66.6667 500.12 65.28C502.893 63.84 505.027 61.8133 506.52 59.2C508.067 56.5867 508.84 53.52 508.84 50C508.84 46.4267 508.067 43.36 506.52 40.8C505.027 38.1867 502.893 36.1867 500.12 34.8C497.4 33.36 494.173 32.64 490.44 32.64H478.6V67.36ZM531.734 78V22H544.694V78H531.734ZM569.984 47.2H596.864V57.6H569.984V47.2ZM570.944 78H557.984V22H600.304V32.4H570.944V78ZM621.078 47.2H647.958V57.6H621.078V47.2ZM622.038 78H609.078V22H651.398V32.4H622.038V78ZM672.091 44.56H699.051V54.64H672.091V44.56ZM673.051 67.6H703.531V78H660.171V22H702.491V32.4H673.051V67.6ZM713.843 78V22H738.083C743.096 22 747.416 22.8267 751.043 24.48C754.67 26.08 757.47 28.4 759.443 31.44C761.416 34.48 762.403 38.1067 762.403 42.32C762.403 46.48 761.416 50.08 759.443 53.12C757.47 56.1067 754.67 58.4 751.043 60C747.416 61.6 743.096 62.4 738.083 62.4H721.043L726.803 56.72V78H713.843ZM749.443 78L735.443 57.68H749.283L763.443 78H749.443ZM726.803 58.16L721.043 52.08H737.363C741.363 52.08 744.35 51.2267 746.323 49.52C748.296 47.76 749.283 45.36 749.283 42.32C749.283 39.2267 748.296 36.8267 746.323 35.12C744.35 33.4133 741.363 32.56 737.363 32.56H721.043L726.803 26.4V58.16ZM784.591 44.56H811.551V54.64H784.591V44.56ZM785.551 67.6H816.031V78H772.671V22H814.991V32.4H785.551V67.6ZM826.343 78V22H837.063L870.103 62.32H864.903V22H877.703V78H867.063L833.943 37.68H839.143V78H826.343ZM902.553 78V32.56H884.633V22H933.433V32.56H915.513V78H902.553Z" fill="black" fill-opacity="0.12"/>
<path d="M945.64 78V22H971.08C977.16 22 982.52 23.1733 987.16 25.52C991.8 27.8133 995.427 31.04 998.04 35.2C1000.65 39.36 1001.96 44.2933 1001.96 50C1001.96 55.6533 1000.65 60.5867 998.04 64.8C995.427 68.96 991.8 72.2133 987.16 74.56C982.52 76.8533 977.16 78 971.08 78H945.64ZM958.6 67.36H970.44C974.173 67.36 977.4 66.6667 980.12 65.28C982.893 63.84 985.027 61.8133 986.52 59.2C988.067 56.5867 988.84 53.52 988.84 50C988.84 46.4267 988.067 43.36 986.52 40.8C985.027 38.1867 982.893 36.1867 980.12 34.8C977.4 33.36 974.173 32.64 970.44 32.64H958.6V67.36ZM1011.73 78V22H1024.69V78H1011.73ZM1049.98 47.2H1076.86V57.6H1049.98V47.2ZM1050.94 78H1037.98V22H1080.3V32.4H1050.94V78ZM1101.08 47.2H1127.96V57.6H1101.08V47.2ZM1102.04 78H1089.08V22H1131.4V32.4H1102.04V78ZM1152.09 44.56H1179.05V54.64H1152.09V44.56ZM1153.05 67.6H1183.53V78H1140.17V22H1182.49V32.4H1153.05V67.6ZM1193.84 78V22H1218.08C1223.1 22 1227.42 22.8267 1231.04 24.48C1234.67 26.08 1237.47 28.4 1239.44 31.44C1241.42 34.48 1242.4 38.1067 1242.4 42.32C1242.4 46.48 1241.42 50.08 1239.44 53.12C1237.47 56.1067 1234.67 58.4 1231.04 60C1227.42 61.6 1223.1 62.4 1218.08 62.4H1201.04L1206.8 56.72V78H1193.84ZM1229.44 78L1215.44 57.68H1229.28L1243.44 78H1229.44ZM1206.8 58.16L1201.04 52.08H1217.36C1221.36 52.08 1224.35 51.2267 1226.32 49.52C1228.3 47.76 1229.28 45.36 1229.28 42.32C1229.28 39.2267 1228.3 36.8267 1226.32 35.12C1224.35 33.4133 1221.36 32.56 1217.36 32.56H1201.04L1206.8 26.4V58.16ZM1264.59 44.56H1291.55V54.64H1264.59V44.56ZM1265.55 67.6H1296.03V78H1252.67V22H1294.99V32.4H1265.55V67.6ZM1306.34 78V22H1317.06L1350.1 62.32H1344.9V22H1357.7V78H1347.06L1313.94 37.68H1319.14V78H1306.34ZM1382.55 78V32.56H1364.63V22H1413.43V32.56H1395.51V78H1382.55Z" fill="black" fill-opacity="0.12"/>
<path d="M1420.64 78V22H1446.08C1452.16 22 1457.52 23.1733 1462.16 25.52C1466.8 27.8133 1470.43 31.04 1473.04 35.2C1475.65 39.36 1476.96 44.2933 1476.96 50C1476.96 55.6533 1475.65 60.5867 1473.04 64.8C1470.43 68.96 1466.8 72.2133 1462.16 74.56C1457.52 76.8533 1452.16 78 1446.08 78H1420.64ZM1433.6 67.36H1445.44C1449.17 67.36 1452.4 66.6667 1455.12 65.28C1457.89 63.84 1460.03 61.8133 1461.52 59.2C1463.07 56.5867 1463.84 53.52 1463.84 50C1463.84 46.4267 1463.07 43.36 1461.52 40.8C1460.03 38.1867 1457.89 36.1867 1455.12 34.8C1452.4 33.36 1449.17 32.64 1445.44 32.64H1433.6V67.36ZM1486.73 78V22H1499.69V78H1486.73ZM1524.98 47.2H1551.86V57.6H1524.98V47.2ZM1525.94 78H1512.98V22H1555.3V32.4H1525.94V78ZM1576.08 47.2H1602.96V57.6H1576.08V47.2ZM1577.04 78H1564.08V22H1606.4V32.4H1577.04V78ZM1627.09 44.56H1654.05V54.64H1627.09V44.56ZM1628.05 67.6H1658.53V78H1615.17V22H1657.49V32.4H1628.05V67.6ZM1668.84 78V22H1693.08C1698.1 22 1702.42 22.8267 1706.04 24.48C1709.67 26.08 1712.47 28.4 1714.44 31.44C1716.42 34.48 1717.4 38.1067 1717.4 42.32C1717.4 46.48 1716.42 50.08 1714.44 53.12C1712.47 56.1067 1709.67 58.4 1706.04 60C1702.42 61.6 1698.1 62.4 1693.08 62.4H1676.04L1681.8 56.72V78H1668.84ZM1704.44 78L1690.44 57.68H1704.28L1718.44 78H1704.44ZM1681.8 58.16L1676.04 52.08H1692.36C1696.36 52.08 1699.35 51.2267 1701.32 49.52C1703.3 47.76 1704.28 45.36 1704.28 42.32C1704.28 39.2267 1703.3 36.8267 1701.32 35.12C1699.35 33.4133 1696.36 32.56 1692.36 32.56H1676.04L1681.8 26.4V58.16ZM1739.59 44.56H1766.55V54.64H1739.59V44.56ZM1740.55 67.6H1771.03V78H1727.67V22H1769.99V32.4H1740.55V67.6ZM1781.34 78V22H1792.06L1825.1 62.32H1819.9V22H1832.7V78H1822.06L1788.94 37.68H1794.14V78H1781.34ZM1857.55 78V32.56H1839.63V22H1888.43V32.56H1870.51V78H1857.55Z" fill="black" fill-opacity="0.12"/>
<path d="M0.64 78V22H26.08C32.16 22 37.52 23.1733 42.16 25.52C46.8 27.8133 50.4267 31.04 53.04 35.2C55.6533 39.36 56.96 44.2933 56.96 50C56.96 55.6533 55.6533 60.5867 53.04 64.8C50.4267 68.96 46.8 72.2133 42.16 74.56C37.52 76.8533 32.16 78 26.08 78H0.64ZM13.6 67.36H25.44C29.1733 67.36 32.4 66.6667 35.12 65.28C37.8933 63.84 40.0267 61.8133 41.52 59.2C43.0667 56.5867 43.84 53.52 43.84 50C43.84 46.4267 43.0667 43.36 41.52 40.8C40.0267 38.1867 37.8933 36.1867 35.12 34.8C32.4 33.36 29.1733 32.64 25.44 32.64H13.6V67.36ZM66.7338 78V22H79.6938V78H66.7338ZM104.984 47.2H131.864V57.6H104.984V47.2ZM105.944 78H92.9838V22H135.304V32.4H105.944V78ZM156.078 47.2H182.958V57.6H156.078V47.2ZM157.038 78H144.078V22H186.398V32.4H157.038V78ZM207.091 44.56H234.051V54.64H207.091V44.56ZM208.051 67.6H238.531V78H195.171V22H237.491V32.4H208.051V67.6ZM248.843 78V22H273.083C278.096 22 282.416 22.8267 286.043 24.48C289.67 26.08 292.47 28.4 294.443 31.44C296.416 34.48 297.403 38.1067 297.403 42.32C297.403 46.48 296.416 50.08 294.443 53.12C292.47 56.1067 289.67 58.4 286.043 60C282.416 61.6 278.096 62.4 273.083 62.4H256.043L261.803 56.72V78H248.843ZM284.443 78L270.443 57.68H284.283L298.443 78H284.443ZM261.803 58.16L256.043 52.08H272.363C276.363 52.08 279.35 51.2267 281.323 49.52C283.296 47.76 284.283 45.36 284.283 42.32C284.283 39.2267 283.296 36.8267 281.323 35.12C279.35 33.4133 276.363 32.56 272.363 32.56H256.043L261.803 26.4V58.16ZM319.591 44.56H346.551V54.64H319.591V44.56ZM320.551 67.6H351.031V78H307.671V22H349.991V32.4H320.551V67.6ZM361.343 78V22H372.063L405.103 62.32H399.903V22H412.703V78H402.063L368.943 37.68H374.143V78H361.343ZM437.553 78V32.56H419.633V22H468.433V32.56H450.513V78H437.553Z" fill="black" fill-opacity="0.12"/>
</svg>
