<svg width="26" height="26" viewBox="0 0 26 26" fill="none" xmlns="http://www.w3.org/2000/svg">
<path d="M12.9997 25.3631C5.83182 25.3631 0 20.5089 0 14.5422C0 10.7236 2.3454 7.26118 6.27468 5.28105C6.47473 5.1802 6.69668 5.11312 6.92787 5.08367C7.15906 5.05421 7.39496 5.06294 7.62209 5.10936C7.84923 5.15579 8.06315 5.23899 8.25165 5.35423C8.44015 5.46947 8.59954 5.61449 8.72071 5.781C8.84188 5.94751 8.92246 6.13225 8.95785 6.32468C8.99324 6.51711 8.98275 6.71346 8.92698 6.90252C8.8712 7.09158 8.77124 7.26964 8.63279 7.42654C8.49434 7.58344 8.32012 7.7161 8.12007 7.81696C5.26596 9.25527 3.5622 11.77 3.5622 14.5422C3.5622 18.8741 7.79584 22.398 13.0003 22.398C18.2048 22.398 22.4378 18.8741 22.4378 14.5422C22.4378 11.7245 20.6092 9.10585 17.6632 7.70994C17.4557 7.61553 17.2729 7.48767 17.1254 7.33382C16.9779 7.17998 16.8688 7.00323 16.8042 6.81388C16.7397 6.62454 16.7211 6.4264 16.7496 6.23102C16.778 6.03563 16.853 5.84692 16.97 5.6759C17.087 5.50487 17.2437 5.35495 17.4311 5.23489C17.6184 5.11482 17.8326 5.02702 18.0612 4.9766C18.2898 4.92617 18.5281 4.91414 18.7623 4.94121C18.9965 4.96827 19.2219 5.03388 19.4253 5.13422C21.4197 6.08145 23.0781 7.4504 24.2327 9.10255C25.3872 10.7547 25.9969 12.6314 26 14.5427C25.9994 20.5089 20.1688 25.3631 12.9997 25.3631ZM12.8643 14.3943C11.881 14.3943 10.6903 13.7305 10.6903 12.912V2.23952C10.6903 1.4211 11.881 0.757263 12.8643 0.757263C13.8475 0.757263 15.0382 1.4211 15.0382 2.23952V12.912C15.0382 13.7305 13.8475 14.3943 12.8643 14.3943Z" fill="white"/>
</svg>
